#!OML:ASF E:\emotionWalksFemale\Project 1\Capture day 1\Session 1\Female1.ASF
:FULLY-SPECIFIED
:DEGREES
590
root 8.59804 15.4268 -0.209421 179.561 -7.99394 -182.044
lowerback 8.19812 -2.15257 -4.92219
upperback -4.60191 -3.65178 -0.555203
thorax -9.25102 -1.52765 2.75508
lowerneck -8.24367 -2.04004 -5.47834
upperneck 17.4572 -3.62283 5.46367
head 6.86686 -1.92377 2.33615
rclavicle -7.95139e-015 7.35503e-015
rhumerus -76.3682 15.0133 -88.6137
rradius 41.9645
rwrist -18.5676
rhand 1.43901 -41.3661
rfingers 7.12502
rthumb -153.032 470.539
lclavicle -7.95139e-015 7.35503e-015
lhumerus -9.18177 -20.6402 69.5389
lradius 90.5016
lwrist 29.7963
lhand -17.3105 318.995
lfingers 7.12502
lthumb 8.93576 -11.2142
rfemur -46.5043 -0.898526 24.1283
rtibia 54.5344
rfoot -15.7642 -18.2353
rtoes -5.73205
lfemur 20.7387 -9.08066 -31.8295
ltibia 9.54166e-015
lfoot -18.3046 6.91435
ltoes -14.0501
591
root 8.6114 15.393 -0.361776 179.642 -8.1941 -181.817
lowerback 8.17111 -2.06651 -4.79206
upperback -4.68619 -3.51161 -0.43048
thorax -9.33743 -1.45934 2.79536
lowerneck -8.30719 -2.18202 -5.65569
upperneck 17.5071 -3.80495 5.54566
head 6.90983 -2.01433 2.37598
rclavicle 5.93869e-015 -9.93923e-015
rhumerus -75.4368 14.6752 -88.721
rradius 41.3213
rwrist -18.0989
rhand 1.59844 -41.6788
rfingers 7.12502
rthumb -152.88 470.249
lclavicle 5.93869e-015 -9.93923e-015
lhumerus -10.7594 -21.0538 70.8747
lradius 89.8306
lwrist 29.2489
lhand -16.9602 319.853
lfingers 7.12502
lthumb 9.27377 -10.3711
rfemur -44.5515 -0.294189 24.1514
rtibia 50.8929
rfoot -16.8805 -19.4207
rtoes -1.17014
lfemur 21.2509 -9.10018 -31.5064
ltibia -2.8625e-014
lfoot -18.0684 6.81161
ltoes -14.1064
592
root 8.60331 15.3548 -0.497679 179.986 -8.64352 -182.24
lowerback 8.22118 -2.04364 -4.85442
upperback -4.84226 -3.52559 -0.587027
thorax -9.54591 -1.46432 2.67367
lowerneck -8.34598 -2.31615 -5.75225
upperneck 17.5073 -3.98362 5.61991
head 6.93105 -2.09802 2.40011
rclavicle 2.95941e-014 2.38542e-015
rhumerus -74.2993 14.2355 -88.6924
rradius 40.72
rwrist -17.7871
rhand 1.65676 -42.7796
rfingers 7.12502
rthumb -152.824 469.157
lclavicle 2.95941e-014 2.38542e-015
lhumerus -12.1543 -21.3618 72.1593
lradius 88.9231
lwrist 28.7041
lhand -16.6385 319.337
lfingers 7.12502
lthumb 9.5841 -10.9007
rfemur -42.9134 -0.308821 23.4465
rtibia 47.4498
rfoot -16.4104 -20.1389
rtoes -1.51781
lfemur 21.5584 -9.37747 -31.9666
ltibia 2.22639e-014
lfoot -17.624 6.60192
ltoes -14.0286
593
root 8.61591 15.3192 -0.652169 180.27 -9.00996 -182.489
lowerback 8.01939 -2.01435 -5.17949
upperback -4.93004 -3.52552 -0.577267
thorax -9.50697 -1.44692 2.85796
lowerneck -8.38351 -2.46723 -5.78528
upperneck 17.4841 -4.15306 5.49884
head 6.93953 -2.18691 2.35095
rclavicle 4.36332e-014 7.35503e-015
rhumerus -73.0301 13.8277 -88.5934
rradius 39.9827
rwrist -17.2004
rhand 1.37751 -43.9211
rfingers 7.12502
rthumb -153.091 467.975
lclavicle 4.36332e-014 7.35503e-015
lhumerus -13.7361 -21.4297 73.5747
lradius 87.9479
lwrist 28.102
lhand -16.7104 319.012
lfingers 7.12502
lthumb 9.51476 -11.2226
rfemur -41.1727 0.157263 22.9091
rtibia 44.1384
rfoot -16.9848 -20.886
rtoes 2.09888
lfemur 21.9193 -9.58386 -32.1272
ltibia 3.81667e-014
lfoot -17.3974 6.45142
ltoes -14.7391
594
root 8.62951 15.2847 -0.815081 180.462 -9.34682 -182.591
lowerback 7.75009 -1.96507 -5.37421
upperback -4.96425 -3.46544 -0.519556
thorax -9.37733 -1.40919 3.00639
lowerneck -8.30738 -2.63774 -5.93394
upperneck 17.3605 -4.33823 5.42607
head 6.89986 -2.28723 2.33663
rclavicle -9.45221e-014 -1.67973e-014
rhumerus -71.5723 13.3081 -88.3386
rradius 38.9779
rwrist -16.1376
rhand 1.14652 -44.1379
rfingers 7.12502
rthumb -153.312 467.724
lclavicle -9.45221e-014 -1.67973e-014
lhumerus -15.4659 -21.4294 75.0571
lradius 86.9758
lwrist 27.544
lhand -16.9597 319.883
lfingers 7.12502
lthumb 9.27419 -10.3407
rfemur -39.382 0.80959 22.4987
rtibia 41.0942
rfoot -17.5085 -21.8577
rtoes 3.83902
lfemur 22.3921 -9.75104 -32.1281
ltibia -1.20861e-013
lfoot -17.09 6.47232
ltoes -16.0979
